<?xml version="1.0" encoding="utf-8"?>
<!-- Generator: Adobe Illustrator 19.2.1, SVG Export Plug-In . SVG Version: 6.00 Build 0)  -->
<svg version="1.1" id="Layer_1" xmlns="http://www.w3.org/2000/svg" xmlns:xlink="http://www.w3.org/1999/xlink" x="0px" y="0px"
	 viewBox="0 0 360 360" style="enable-background:new 0 0 360 360;" xml:space="preserve">
<style type="text/css">
	.st0{fill:#ED1C24;}
</style>
<g>
	<path class="st0" d="M309,142.7c11.9,0,16.1,7.1,12.8,19.6l-0.7,2.4h-11.6l0.9-3.2c1.5-5.6-0.2-7.7-4.1-7.7s-6.7,2.1-8.2,7.7
		c-4.3,16,18.8,19,12.9,41.3c-3.3,12.5-11.5,19.6-23.5,19.6s-16.3-7.1-13-19.6l1.3-4.8h11.6l-1.5,5.6c-1.5,5.6,0.4,7.6,4.3,7.6
		s6.9-2,8.4-7.6c4.3-16-18.8-19-12.9-41.3C289.1,149.8,297.1,142.7,309,142.7z"/>
	<path class="st0" d="M322.5,143.6h37.8l-3,11.1h-12.8l-17.9,66.8h-12.2l17.9-66.8h-12.8L322.5,143.6z"/>
</g>
<g>
	<path class="st0" d="M298.3,227.6l-9.7,34.7h-263L71.5,97.7h262.9l-11.2,40.4c0.3,0,6.5,0.3,9.2,0.3l0,0l13.8-49.7H64.6L13.7,271.3
		h281.6l12.2-43.7L298.3,227.6L298.3,227.6z"/>
</g>
<g>
	<path class="st0" d="M44.8,247.1c0.4,0.5,0.9,0.9,1.3,1.3c0.5,0.4,0.9,0.8,1.4,1.1s1,0.5,1.6,0.7s1.2,0.3,1.9,0.3
		c1.5,0,2.7-0.3,3.4-1c0.8-0.7,1.1-1.6,1.1-2.6c0-0.6-0.1-1.1-0.4-1.5c-0.2-0.4-0.6-0.8-1-1.2s-0.9-0.6-1.4-0.9
		c-0.5-0.3-1.1-0.5-1.7-0.8c-1.4-0.6-2.7-1.2-3.8-1.7c-1.1-0.6-2-1.2-2.8-1.9c-0.7-0.7-1.3-1.5-1.7-2.4s-0.6-1.9-0.6-3
		s0.2-2.1,0.7-3c0.4-0.9,1-1.7,1.8-2.3s1.7-1.1,2.7-1.5s2.1-0.5,3.3-0.5c0.5,0,1,0,1.5,0.1s1,0.2,1.5,0.3s1,0.3,1.5,0.5
		s0.9,0.4,1.3,0.7c0.3,0.2,0.6,0.4,0.8,0.6c0.3,0.2,0.5,0.5,0.8,0.7c0.2,0.2,0.4,0.5,0.6,0.7c0.1,0.2,0.2,0.4,0.2,0.6
		c0,0.2,0,0.3-0.1,0.4c-0.1,0.1-0.2,0.2-0.3,0.4l-1.8,1.9c-0.2,0.2-0.3,0.2-0.5,0.2c-0.1,0-0.3,0-0.4-0.1c-0.1-0.1-0.2-0.2-0.3-0.3
		l-0.1-0.1c-0.3-0.3-0.5-0.6-0.9-0.9c-0.3-0.3-0.7-0.5-1.1-0.7c-0.4-0.2-0.8-0.3-1.3-0.5s-0.9-0.2-1.3-0.2c-0.5,0-1,0.1-1.4,0.2
		c-0.4,0.1-0.8,0.3-1.1,0.6s-0.5,0.6-0.7,0.9s-0.3,0.8-0.3,1.3s0.1,0.9,0.3,1.3s0.5,0.7,0.8,1c0.4,0.3,0.8,0.6,1.4,0.8
		c0.6,0.3,1.2,0.6,1.9,0.9l1.7,0.7c1.1,0.5,2.1,1,2.9,1.5c0.9,0.5,1.6,1.1,2.3,1.8s1.1,1.4,1.5,2.2s0.5,1.8,0.5,2.9
		c0,1.3-0.2,2.5-0.7,3.5c-0.5,1.1-1.2,2-2,2.7c-0.9,0.8-1.9,1.3-3.1,1.7c-1.2,0.4-2.5,0.6-4,0.6c-2.1,0-3.9-0.4-5.5-1.3
		c-1.6-0.9-3-2.1-4.3-3.7l0,0l0,0c-0.1-0.2-0.2-0.3-0.3-0.4c-0.1-0.1-0.1-0.2-0.1-0.3c0-0.2,0.2-0.5,0.5-0.7l2.3-1.9
		c0.2-0.1,0.4-0.2,0.5-0.2C44.3,246.7,44.5,246.9,44.8,247.1z"/>
	<path class="st0" d="M60.5,227.5c0-0.3,0.1-0.5,0.2-0.6c0.2-0.2,0.4-0.2,0.6-0.2h19.3c0.2,0,0.4,0.1,0.6,0.2
		c0.2,0.1,0.3,0.3,0.3,0.6v3c0,0.2-0.1,0.5-0.2,0.7c-0.2,0.2-0.4,0.3-0.7,0.3h-7V254c0,0.2-0.1,0.4-0.2,0.6
		c-0.2,0.2-0.4,0.3-0.7,0.3h-3.5c-0.2,0-0.4-0.1-0.6-0.2c-0.2-0.2-0.3-0.4-0.3-0.6v-22.5h-7.1c-0.3,0-0.5-0.1-0.6-0.2
		c-0.2-0.2-0.2-0.4-0.2-0.7L60.5,227.5L60.5,227.5z"/>
	<path class="st0" d="M88.7,225.8c0.1-0.1,0.2-0.2,0.3-0.3c0.1-0.1,0.3-0.1,0.5-0.1s0.3,0.1,0.5,0.2s0.2,0.2,0.3,0.4
		c0.1,0.1,0.2,0.3,0.2,0.4c0.1,0.1,0.1,0.2,0.1,0.3l0.3,0.8c1.9,4.5,3.8,8.9,5.7,13.3c1.9,4.4,3.8,8.9,5.7,13.3c0,0,0,0.1,0,0.2
		c0,0.1,0,0.1,0,0.2c0,0.4-0.3,0.6-0.8,0.6h-3.8c-0.5,0-0.9-0.2-1-0.7l-1.1-2.8H83.2l-1.1,2.8c-0.2,0.5-0.5,0.8-1.1,0.8h-3.7
		c-0.3,0-0.5-0.1-0.6-0.2c-0.1-0.1-0.2-0.2-0.2-0.4c0-0.1,0-0.2,0-0.2s0-0.1,0.1-0.2c1.9-4.5,3.8-8.9,5.7-13.3
		c1.9-4.4,3.8-8.8,5.7-13.3c0.1-0.3,0.2-0.5,0.3-0.8C88.5,226.3,88.6,226,88.7,225.8z M89.5,234.9c-0.1,0.2-0.2,0.5-0.3,0.7
		c-0.1,0.2-0.2,0.5-0.3,0.7L84.8,247h9.4L90,236.4c-0.1-0.2-0.2-0.5-0.2-0.7C89.7,235.4,89.6,235.2,89.5,234.9z"/>
	<path class="st0" d="M98.1,227.5c0-0.3,0.1-0.5,0.2-0.6c0.2-0.2,0.4-0.2,0.6-0.2h19.3c0.2,0,0.4,0.1,0.6,0.2
		c0.2,0.1,0.3,0.3,0.3,0.6v3c0,0.2-0.1,0.5-0.2,0.7c-0.2,0.2-0.4,0.3-0.7,0.3h-7V254c0,0.2-0.1,0.4-0.2,0.6
		c-0.2,0.2-0.4,0.3-0.7,0.3H107c-0.2,0-0.4-0.1-0.6-0.2c-0.2-0.2-0.3-0.4-0.3-0.6v-22.5H99c-0.3,0-0.5-0.1-0.6-0.2
		c-0.2-0.2-0.2-0.4-0.2-0.7v-3.2H98.1z"/>
	<path class="st0" d="M136.8,226.6c0.2,0,0.4,0.1,0.5,0.2c0.1,0.1,0.2,0.3,0.2,0.5v0.7c0,0.2-0.1,0.4-0.2,0.5s-0.3,0.2-0.6,0.2h-8
		v25.5c0,0.5-0.2,0.7-0.7,0.7h-0.7c-0.5,0-0.7-0.2-0.7-0.7v-25.5h-8.3c-0.5,0-0.7-0.2-0.7-0.7v-0.7c0-0.5,0.2-0.7,0.7-0.7H136.8z"/>
	<path class="st0" d="M159.4,237.3c0,0.9-0.1,1.8-0.3,2.6s-0.5,1.7-0.9,2.5s-0.9,1.5-1.5,2.2s-1.3,1.2-2.1,1.7l3.6,7.7
		c0,0,0,0.1,0,0.2s0,0.1,0,0.2c0,0.1,0,0.3-0.1,0.4c-0.1,0.1-0.2,0.2-0.4,0.2h-1.1c-0.2,0-0.4-0.1-0.6-0.4l-3.4-7.2
		c-1.2,0.5-2.5,0.7-4,0.7h-7.8v6.2c0,0.5-0.2,0.7-0.7,0.7h-0.7c-0.5,0-0.7-0.2-0.7-0.7v-26.7c0-0.2,0.1-0.4,0.2-0.5
		c0.1-0.1,0.3-0.2,0.5-0.2h9.3c1.7,0,3.2,0.3,4.5,0.9c1.3,0.6,2.5,1.4,3.4,2.4s1.7,2.1,2.2,3.4C159.2,234.6,159.4,235.9,159.4,237.3
		z M148.6,245.7c1.4,0,2.6-0.2,3.7-0.7s2-1.1,2.7-1.9c0.7-0.8,1.3-1.7,1.7-2.7s0.6-2.1,0.6-3.1c0-1.1-0.2-2.1-0.6-3.1
		s-1-1.9-1.7-2.7s-1.6-1.4-2.7-1.9s-2.3-0.7-3.7-0.7h-7.8v17h7.8V245.7z"/>
	<path class="st0" d="M182.8,254.3c-0.3-0.6-0.5-1.2-0.8-1.8s-0.5-1.2-0.8-1.9h-16.9l-1.5,3.6c-0.2,0.4-0.4,0.6-0.7,0.6
		c-0.4,0-0.8-0.1-1-0.2c-0.3-0.1-0.4-0.3-0.4-0.4c0-0.1,0-0.2,0.1-0.3l11.1-26.5c0.1-0.1,0.1-0.2,0.2-0.4c0.1-0.2,0.2-0.3,0.2-0.4
		s0.2-0.2,0.3-0.3s0.2-0.1,0.2-0.1c0.3,0,0.4,0.1,0.6,0.4l11.4,27.4c0,0,0,0.1,0.1,0.2c0,0.1,0,0.1,0,0.2c0,0.1-0.1,0.3-0.4,0.4
		s-0.6,0.2-1,0.2C183.2,254.8,183,254.7,182.8,254.3z M165.3,248.5h15.2l-6.9-16.7c-0.1-0.3-0.2-0.5-0.3-0.8s-0.2-0.5-0.3-0.8l0,0
		L165.3,248.5z"/>
	<path class="st0" d="M206.1,229.4c0.2,0.2,0.3,0.3,0.3,0.5c0,0.1-0.1,0.3-0.2,0.4c0,0-0.1,0.1-0.1,0.2s-0.1,0.2-0.2,0.3
		c-0.1,0.1-0.2,0.2-0.3,0.3s-0.2,0.1-0.3,0.1l0,0h-0.1c0,0-0.1,0-0.2,0c-0.1,0-0.1-0.1-0.2-0.1c-1.1-0.8-2.3-1.5-3.5-2
		s-2.6-0.7-4-0.7c-1.2,0-2.3,0.1-3.4,0.4c-1.1,0.3-2.1,0.7-3,1.3c-0.9,0.5-1.8,1.2-2.5,2c-0.8,0.8-1.4,1.6-1.9,2.5s-1,1.9-1.2,2.9
		c-0.3,1-0.4,2.1-0.4,3.2c0,1.1,0.1,2.2,0.4,3.3s0.7,2,1.3,2.9s1.2,1.7,1.9,2.5c0.8,0.7,1.6,1.4,2.5,1.9s1.9,0.9,2.9,1.2
		s2.1,0.4,3.2,0.4c2.6,0,5.1-0.9,7.5-2.6l0.5-0.3c0.1-0.1,0.2-0.1,0.3-0.1s0.2,0.1,0.3,0.2c0.1,0.1,0.2,0.2,0.4,0.4
		c0.1,0.1,0.2,0.3,0.3,0.5s0.1,0.3,0.1,0.4c0,0.1,0,0.2-0.1,0.3s-0.1,0.2-0.2,0.3c-1.3,1-2.6,1.7-4.1,2.3c-1.5,0.5-3.1,0.8-4.8,0.8
		c-2,0-3.9-0.4-5.6-1.1c-1.8-0.8-3.3-1.8-4.6-3.1s-2.3-2.8-3.1-4.6s-1.1-3.6-1.1-5.6c0-1.3,0.2-2.6,0.5-3.8s0.8-2.4,1.5-3.4
		s1.4-2,2.3-2.9c0.9-0.9,1.9-1.6,2.9-2.3c1.1-0.6,2.2-1.1,3.5-1.5c1.2-0.3,2.5-0.5,3.8-0.5c1.7,0,3.3,0.3,4.8,0.8
		C203.5,227.7,204.9,228.4,206.1,229.4z"/>
	<path class="st0" d="M223.8,247c-0.7-1.2-1.5-2.4-2.2-3.7c-0.8-1.2-1.5-2.5-2.2-3.7l-2-3.4c-0.8,0.8-1.7,1.6-2.5,2.3
		c-0.8,0.8-1.6,1.6-2.5,2.3l-2.1,1.9V254c0,0.5-0.2,0.7-0.7,0.7h-0.7c-0.5,0-0.7-0.2-0.7-0.7v-26.8c0-0.2,0.1-0.4,0.2-0.5
		c0.1-0.1,0.3-0.2,0.5-0.2h0.7c0.2,0,0.4,0.1,0.5,0.2c0.1,0.1,0.2,0.3,0.2,0.5v12.4l13.1-12.5c0.2-0.2,0.3-0.3,0.5-0.4
		c0.2-0.1,0.3-0.1,0.5-0.2c0.2,0,0.3-0.1,0.5-0.1s0.4,0,0.7,0s0.5,0,0.7,0.1s0.3,0.2,0.3,0.4c0,0.1-0.1,0.2-0.2,0.3l-7.5,7.2
		l11.5,19.2c0.1,0.2,0.1,0.3,0.1,0.5c0,0.4-0.3,0.6-1,0.6c-0.2,0-0.4,0-0.6-0.1c-0.2,0-0.4-0.1-0.5-0.2c-0.8-1.3-1.6-2.6-2.3-3.8
		C225.3,249.5,224.6,248.3,223.8,247z"/>
</g>
</svg>
